<?xml version="1.0" encoding="UTF-8"?>
<!DOCTYPE svg PUBLIC "-//W3C//DTD SVG 1.1//EN" "http://www.w3.org/Graphics/SVG/1.1/DTD/svg11.dtd">
<svg xmlns="http://www.w3.org/2000/svg" version="1.1" width="500px" height="500px" style="shape-rendering:geometricPrecision; text-rendering:geometricPrecision; image-rendering:optimizeQuality; fill-rule:evenodd; clip-rule:evenodd" xmlns:xlink="http://www.w3.org/1999/xlink">
<g><path style="opacity:0.984" fill="#8c51ff" d="M 246.5,67.5 C 297.505,65.856 341.505,82.356 378.5,117C 379.833,117.667 381.167,117.667 382.5,117C 386.2,112.965 390.2,109.298 394.5,106C 397.025,105.104 399.192,105.604 401,107.5C 403.416,124.496 405.416,141.496 407,158.5C 405.701,159.98 404.034,160.646 402,160.5C 386.158,158.054 370.325,155.554 354.5,153C 351.278,151.01 350.778,148.51 353,145.5C 357.967,141.534 362.634,137.201 367,132.5C 367.667,131.167 367.667,129.833 367,128.5C 322.7,87.5501 271.2,74.7168 212.5,90C 204.518,92.2159 196.851,95.2159 189.5,99C 181.346,100.836 177.512,97.6692 178,89.5C 179.563,86.2716 182.063,84.1049 185.5,83C 205.118,74.5125 225.452,69.3459 246.5,67.5 Z"/></g>
<g><path style="opacity:0.984" fill="#8b51ff" d="M 109.5,151.5 C 112.808,150.974 114.974,152.307 116,155.5C 121.797,170.39 127.297,185.39 132.5,200.5C 132.029,203.302 130.362,204.636 127.5,204.5C 121.13,202.991 114.796,201.324 108.5,199.5C 106.971,199.529 105.804,200.196 105,201.5C 91.0397,272.651 113.04,329.651 171,372.5C 172.022,383.41 167.522,386.576 157.5,382C 110.331,346.833 85.9973,299.666 84.5,240.5C 84.8707,225.004 86.3707,209.67 89,194.5C 83.6641,192.277 78.1641,190.444 72.5,189C 68.5764,186.182 68.5764,183.182 72.5,180C 85.2629,170.964 97.5962,161.464 109.5,151.5 Z"/></g>
<g><path style="opacity:0.99" fill="#8c51ff" d="M 272.5,152.5 C 279.226,151.517 282.893,154.351 283.5,161C 279.749,181.089 275.749,201.089 271.5,221C 283.5,221.333 295.5,221.667 307.5,222C 312.143,224.072 313.643,227.572 312,232.5C 291.667,260.833 271.333,289.167 251,317.5C 248.146,321.35 244.979,324.85 241.5,328C 234.793,329.439 231.126,326.773 230.5,320C 234.953,298.904 238.953,277.737 242.5,256.5C 231.162,256.667 219.828,256.5 208.5,256C 204.98,253.794 203.48,250.627 204,246.5C 225.955,214.401 248.788,183.067 272.5,152.5 Z"/></g>
<g><path style="opacity:0.985" fill="#8c51ff" d="M 417.5,245.5 C 422.742,244.271 426.575,245.937 429,250.5C 423.15,319.663 388.983,369.163 326.5,399C 318.93,401.952 311.263,404.619 303.5,407C 302.056,408.126 301.39,409.626 301.5,411.5C 302.66,416.471 303.66,421.471 304.5,426.5C 304.5,430.667 302.5,432.167 298.5,431C 283.874,424.736 269.207,418.569 254.5,412.5C 252.744,410.809 252.244,408.809 253,406.5C 263.545,394.29 273.712,381.79 283.5,369C 286.011,366.895 288.344,367.062 290.5,369.5C 292.345,376.545 294.345,383.545 296.5,390.5C 298.074,391.631 299.741,391.798 301.5,391C 358.213,372.287 394.38,334.12 410,276.5C 411.892,267.92 413.226,259.253 414,250.5C 414.997,248.677 416.164,247.01 417.5,245.5 Z"/></g>
</svg>
