<?xml version="1.0" standalone="no"?>
<!DOCTYPE svg PUBLIC "-//W3C//DTD SVG 20010904//EN"
 "http://www.w3.org/TR/2001/REC-SVG-20010904/DTD/svg10.dtd">
<svg version="1.0" xmlns="http://www.w3.org/2000/svg"
 width="400.000000pt" height="400.000000pt" viewBox="0 0 400.000000 400.000000"
 preserveAspectRatio="xMidYMid meet">

<g transform="translate(0.000000,400.000000) scale(0.100000,-0.100000)"
fill="#000000" stroke="none">
<path d="M2850 3633 c37 -7 49 -23 22 -30 -21 -5 -19 -7 18 -24 23 -11 48 -19
56 -19 8 0 14 -4 14 -10 0 -5 8 -10 17 -10 9 0 14 -2 11 -5 -3 -3 -41 4 -84
16 -168 46 -418 22 -569 -54 -16 -8 -60 -29 -96 -46 -37 -17 -69 -37 -72 -45
-4 -9 -14 -12 -26 -9 -14 4 -21 1 -21 -10 0 -8 -10 -17 -22 -21 -13 -3 -57
-28 -98 -55 -41 -28 -78 -51 -82 -51 -5 0 -18 -9 -30 -20 -47 -41 -56 -48 -61
-44 -8 8 -57 -18 -51 -28 3 -4 -3 -11 -13 -15 -10 -4 -24 -13 -32 -21 -8 -7
-25 -20 -38 -29 -13 -9 -21 -18 -19 -21 3 -3 21 7 40 22 19 14 37 26 39 26 3
0 34 17 68 39 67 40 291 155 369 189 173 76 286 115 380 132 83 15 279 13 355
-4 l60 -13 -130 0 c-71 0 -150 -3 -175 -7 -79 -12 -220 -48 -220 -56 0 -5 -13
-11 -30 -15 -16 -4 -30 -11 -30 -16 0 -5 -3 -8 -7 -7 -16 4 -111 -37 -106 -45
3 -5 -3 -6 -14 -3 -13 4 -26 -1 -38 -14 -12 -13 -26 -18 -39 -14 -17 4 -18 3
-6 -5 13 -9 13 -11 -2 -11 -10 0 -18 -4 -18 -10 0 -12 5 -13 28 -1 85 43 285
109 398 131 103 20 268 27 290 12 7 -4 -43 -7 -110 -8 -77 -1 -146 -7 -191
-18 -83 -21 -268 -83 -310 -104 -16 -9 -35 -17 -42 -18 -22 -4 -165 -76 -160
-80 3 -3 13 -1 24 5 40 24 274 103 378 130 259 64 445 66 628 5 72 -24 53 -25
-34 -2 -67 18 -82 19 -135 7 -50 -10 -55 -13 -34 -20 20 -6 17 -7 -20 -9 l-45
-2 35 -9 c165 -43 260 -99 351 -209 61 -74 83 -188 59 -316 -14 -76 -71 -238
-101 -288 -25 -41 -25 -14 1 38 22 47 50 149 50 184 0 13 4 20 10 17 6 -3 10
4 10 17 0 19 -2 20 -11 8 -8 -11 -9 -6 -4 20 11 57 16 240 6 240 -5 0 -7 10
-3 22 3 15 2 19 -7 14 -6 -4 -11 -4 -10 1 5 18 -26 60 -67 93 -25 19 -53 42
-62 50 -21 19 -71 43 -132 63 -25 9 -54 18 -65 22 -16 6 -17 5 -5 -4 13 -10
13 -12 0 -21 -12 -8 -9 -9 10 -5 14 3 43 -1 65 -10 30 -11 32 -14 10 -9 -58
12 -150 0 -175 -22 -10 -9 -34 -12 -70 -9 -37 3 -50 1 -40 -5 12 -8 12 -10 -4
-10 -11 0 1 -11 30 -26 67 -35 126 -95 160 -162 25 -50 29 -70 32 -162 4 -93
1 -115 -22 -185 -28 -82 -45 -126 -74 -182 -27 -54 -25 -29 4 33 55 123 68
175 68 264 0 63 -6 103 -23 152 -13 37 -27 65 -32 62 -5 -3 -6 3 -2 12 5 12 3
15 -6 9 -10 -5 -11 -2 -6 14 3 11 1 29 -5 38 -9 15 -10 15 -4 -6 4 -16 3 -21
-5 -17 -6 4 -11 13 -11 20 0 18 -36 49 -52 44 -7 -3 -28 1 -46 9 -32 13 -193
20 -211 9 -5 -4 -11 -2 -13 2 -1 5 -41 6 -88 3 -64 -5 -77 -8 -54 -13 17 -4
41 -4 54 -1 16 4 21 3 16 -5 -4 -7 -1 -12 9 -12 25 0 107 -45 156 -85 113 -94
150 -197 148 -414 -1 -77 -5 -139 -8 -136 -4 2 -8 -14 -8 -35 -1 -22 -9 -50
-18 -63 -8 -13 -13 -33 -9 -43 5 -16 4 -16 -5 -4 -7 10 -11 11 -11 3 0 -7 -7
-13 -16 -13 -11 0 -15 -6 -11 -20 3 -11 1 -17 -4 -14 -5 3 -13 -5 -18 -18 -6
-13 -10 -17 -10 -10 -1 18 -15 15 -29 -8 -11 -18 -9 -24 14 -45 l27 -25 30 48
c16 26 32 49 36 52 4 3 21 28 39 55 17 28 35 55 40 61 5 5 15 20 21 33 7 12
15 20 18 17 7 -7 -114 -206 -138 -226 -3 -3 -12 -15 -18 -28 -11 -21 -9 -29
13 -61 34 -49 46 -92 46 -167 0 -116 -53 -202 -154 -253 -41 -20 -59 -22 -129
-19 -69 3 -89 8 -125 31 -47 31 -55 29 -95 -20 -10 -12 -35 -39 -55 -60 -65
-66 -161 -200 -198 -275 -20 -40 -40 -81 -44 -90 -21 -38 -40 -155 -40 -240 0
-50 -3 -89 -6 -85 -9 9 -13 218 -4 212 4 -2 5 7 2 20 -2 14 0 25 5 25 6 0 10
14 11 30 1 39 113 245 153 280 3 3 12 15 21 28 17 25 119 141 162 185 25 24
28 32 18 46 -7 9 -21 30 -32 46 -14 21 -20 25 -20 12 0 -9 -5 -16 -12 -15 -7
2 -12 -3 -13 -11 0 -8 -6 -16 -14 -19 -9 -3 -11 0 -6 9 5 8 4 11 -1 6 -5 -5
-10 -13 -10 -18 -1 -5 -2 -14 -3 -20 0 -5 -5 -7 -11 -4 -13 8 -13 -1 0 -25 16
-29 -26 -52 -98 -53 -62 0 -91 11 -135 52 -41 38 -57 73 -57 129 0 58 26 103
85 144 36 26 47 28 112 26 88 -4 100 -13 83 -63 -12 -36 -12 -36 -56 -29 -39
6 -46 3 -74 -24 -39 -39 -39 -74 -1 -113 44 -44 65 -38 137 39 62 66 64 68 64
123 0 106 70 212 168 255 l52 24 0 54 c0 35 -5 60 -15 70 -8 8 -15 18 -15 23
0 13 -86 86 -106 90 -101 22 -359 23 -514 2 -193 -25 -468 -89 -610 -142 -96
-36 -113 -44 -140 -67 -14 -12 -18 -19 -10 -15 8 4 6 -1 -5 -10 -23 -20 -33
-20 130 10 128 24 262 17 339 -18 31 -15 74 -40 94 -57 20 -16 40 -30 45 -30
7 0 101 -66 139 -99 17 -14 17 -16 -4 -38 -12 -13 -17 -23 -11 -23 5 0 15 -12
21 -26 7 -14 15 -23 20 -21 4 3 8 -29 10 -70 3 -67 1 -79 -22 -112 -15 -21
-47 -48 -72 -60 -38 -19 -58 -22 -123 -20 -57 3 -82 9 -95 22 -10 9 -22 17
-27 17 -11 0 -59 75 -59 93 0 24 -64 75 -130 102 -67 29 -78 31 -167 33 -46 2
-53 5 -53 22 0 23 13 25 90 10 59 -11 232 -77 242 -93 3 -5 15 8 27 29 11 21
26 46 33 55 24 30 95 59 147 59 l49 0 -16 41 c-9 23 -29 54 -44 70 -28 28 -32
29 -180 45 -42 4 -55 -5 -83 -63 l-19 -40 -35 14 c-48 20 -143 13 -178 -13
-50 -38 -68 -71 -68 -129 0 -58 18 -91 68 -129 37 -27 134 -34 178 -12 18 9
33 15 33 14 1 -2 11 -22 24 -44 12 -23 22 -47 22 -53 0 -25 -83 -51 -166 -51
-66 0 -89 4 -130 25 -83 41 -164 137 -164 193 0 10 -7 19 -15 19 -8 0 -12 -4
-9 -9 3 -4 -6 -8 -19 -8 -43 0 -212 -95 -264 -147 -12 -13 -26 -23 -31 -23 -5
0 -28 -20 -51 -45 -23 -25 -46 -45 -51 -45 -5 0 -16 -13 -24 -28 -19 -36 -86
-102 -104 -102 -10 0 -13 -9 -10 -29 3 -18 0 -29 -6 -28 -6 1 -11 -5 -11 -13
0 -15 -16 -27 -65 -52 -14 -6 -32 -18 -42 -26 -9 -7 -22 -14 -30 -16 -20 -3
-88 -46 -88 -57 0 -5 11 -3 25 3 14 6 25 15 25 19 0 8 181 97 242 119 20 8 34
18 31 23 -3 6 -1 7 5 3 6 -4 46 5 89 18 206 66 392 53 553 -38 19 -10 47 -26
62 -33 16 -8 28 -18 28 -22 0 -5 20 -39 45 -75 25 -37 45 -69 45 -71 0 -3 12
-30 26 -62 15 -32 30 -69 34 -83 4 -14 53 -131 108 -260 55 -129 103 -246 106
-260 7 -31 -3 -11 -72 147 -27 62 -52 110 -56 108 -3 -3 -4 -2 -2 1 5 7 -41
119 -61 149 -7 11 -13 26 -13 34 0 23 -71 182 -106 236 -46 72 -107 138 -145
156 -76 37 -111 50 -127 47 -10 -2 6 -14 41 -31 119 -56 208 -175 291 -392 67
-173 169 -419 179 -433 5 -7 7 -15 5 -18 -3 -3 -16 17 -28 43 -56 119 -105
211 -111 207 -4 -2 -5 5 -2 16 3 12 -1 22 -11 26 -9 3 -16 15 -16 25 0 10 -4
19 -10 19 -5 0 -13 18 -16 40 -4 22 -10 37 -14 35 -5 -3 -7 9 -6 25 1 17 -2
30 -7 30 -5 0 -7 9 -4 20 3 12 1 18 -5 14 -6 -4 -8 1 -3 15 4 12 2 21 -4 21
-6 0 -11 6 -11 12 0 7 -14 40 -31 74 -25 52 -67 100 -154 181 -7 7 -39 24 -71
39 -51 23 -73 27 -159 28 -55 0 -122 -5 -150 -13 -81 -21 -149 -42 -170 -51
-11 -5 -49 -21 -85 -36 -75 -30 -247 -120 -272 -142 -17 -14 -18 -54 -18 -572
l0 -557 23 -21 23 -22 1872 0 1871 0 77 116 c43 64 91 126 106 137 l28 21 0
767 0 768 -53 19 c-150 56 -361 56 -535 0 -35 -11 -65 -19 -67 -17 -2 2 19 40
47 84 158 255 231 497 230 765 -1 194 -19 266 -119 464 -101 201 -308 388
-518 470 -38 15 -80 31 -93 36 -13 6 -33 9 -45 9 -20 -2 -19 -2 3 -6z m180
-173 c18 -12 2 -12 -25 0 -13 6 -15 9 -5 9 8 0 22 -4 30 -9z m7 -76 c-3 -3
-12 -4 -19 -1 -8 3 -5 6 6 6 11 1 17 -2 13 -5z m-767 -68 c0 -2 -7 -7 -16 -10
-8 -3 -12 -2 -9 4 6 10 25 14 25 6z m936 -37 c47 -28 43 -33 -6 -8 -38 20 -48
29 -34 29 4 0 22 -9 40 -21z m85 -66 c13 -16 12 -17 -3 -4 -17 13 -22 21 -14
21 2 0 10 -8 17 -17z m-1471 -33 c-8 -5 -19 -10 -25 -10 -5 0 -3 5 5 10 8 5
20 10 25 10 6 0 3 -5 -5 -10z m1511 -7 c13 -16 12 -17 -3 -4 -17 13 -22 21
-14 21 2 0 10 -8 17 -17z m40 -45 c11 -21 11 -22 -4 -9 -10 7 -17 17 -17 22 0
15 9 10 21 -13z m49 -79 c0 -6 -4 -7 -10 -4 -5 3 -10 11 -10 16 0 6 5 7 10 4
6 -3 10 -11 10 -16z m17 -51 c-3 -8 -6 -5 -6 6 -1 11 2 17 5 13 3 -3 4 -12 1
-19z m31 -108 c0 -9 -3 -7 -8 5 -5 11 -8 29 -8 40 0 16 2 15 8 -5 4 -14 8 -32
8 -40z m9 -142 c-3 -8 -6 -5 -6 6 -1 11 2 17 5 13 3 -3 4 -12 1 -19z m-10
-150 c-3 -8 -6 -5 -6 6 -1 11 2 17 5 13 3 -3 4 -12 1 -19z m-317 -178 c-6 -11
-13 -20 -16 -20 -2 0 0 9 6 20 6 11 13 20 16 20 2 0 0 -9 -6 -20z m-95 -225
c85 -22 92 -32 65 -86 -13 -24 -24 -45 -25 -47 -2 -2 -17 4 -35 13 -41 21
-119 17 -134 -7 -17 -28 3 -49 95 -96 110 -55 143 -95 137 -168 -5 -63 -35
-107 -91 -135 -78 -40 -282 -9 -303 46 -3 7 7 34 21 60 26 44 28 45 49 30 33
-24 67 -37 112 -42 33 -4 46 -1 63 16 34 34 11 66 -80 112 -98 49 -129 86
-129 157 0 40 6 57 27 84 33 40 47 49 93 65 48 16 66 15 135 -2z m-1326 -259
c1 -6 -5 -1 -13 9 -8 11 -12 24 -8 29 5 9 20 -17 21 -38z m447 -165 c1 -1 -14
-17 -33 -37 -19 -20 -37 -34 -40 -30 -3 3 6 18 20 32 15 15 24 30 22 34 -4 6
22 7 31 1z m-687 -180 c22 -84 42 -184 61 -306 35 -232 59 -346 120 -579 33
-126 60 -234 60 -239 0 -26 -12 8 -35 99 -15 54 -30 113 -34 130 -5 18 -12 38
-17 45 -5 8 -10 23 -11 34 -2 11 -9 43 -17 70 -8 28 -17 62 -20 78 -4 18 -13
27 -26 27 -11 0 -19 3 -18 7 3 11 -23 86 -34 100 -6 7 -12 100 -13 210 -3 200
-4 203 -51 363 -7 22 -6 24 9 11 9 -7 21 -30 26 -50z m180 -2 c-24 -45 -37
-396 -19 -534 15 -124 63 -322 91 -377 14 -27 10 -35 -6 -14 -8 11 -15 28 -15
39 0 10 -4 16 -9 13 -5 -4 -7 4 -3 16 3 14 2 19 -6 14 -8 -5 -11 0 -10 11 3
35 -2 54 -12 48 -7 -4 -9 3 -5 22 5 22 4 25 -5 13 -9 -12 -11 -9 -8 17 3 18 1
30 -3 27 -9 -5 -15 13 -30 101 -14 77 -15 214 -4 467 6 143 9 167 24 170 21 5
32 -12 20 -33z m281 32 c0 -6 -5 -13 -10 -16 -6 -4 -7 -12 -4 -18 4 -7 3 -9
-1 -4 -10 8 -71 -56 -80 -84 -4 -10 -10 -19 -15 -19 -4 0 -11 -8 -14 -17 -11
-29 -66 -119 -66 -108 0 11 79 145 135 229 27 41 55 60 55 37z m18 -98 c-35
-48 -82 -125 -105 -172 -23 -47 -43 -79 -43 -70 0 25 56 133 108 208 72 104
85 121 94 121 4 0 -20 -39 -54 -87z m-167 -339 c-11 -38 -20 -61 -20 -51 -1
24 29 130 35 124 3 -2 -4 -35 -15 -73z m-34 -231 c-3 -10 -5 -4 -5 12 0 17 2
24 5 18 2 -7 2 -21 0 -30z m102 -123 c0 -9 -4 -8 -9 5 -5 11 -9 27 -9 35 0 9
4 8 9 -5 5 -11 9 -27 9 -35z m-1038 -7 c31 -16 93 -66 144 -116 56 -55 117
-103 161 -128 67 -37 150 -107 185 -154 13 -19 13 -19 -6 -5 -11 8 -32 28 -47
43 -17 19 -31 26 -40 21 -7 -4 -10 -4 -6 1 7 7 -14 35 -26 35 -3 0 -33 16 -67
37 -85 49 -138 63 -242 64 -76 0 -97 -3 -142 -26 -50 -24 -54 -28 -65 -78 -6
-29 -15 -61 -20 -72 -5 -11 -11 -27 -13 -35 -3 -9 -6 -5 -6 9 -1 24 -2 24 -15
6 -8 -11 -12 -24 -9 -29 4 -5 1 -6 -6 -2 -16 10 -5 78 20 128 22 43 24 55 7
40 -15 -12 -15 -9 -24 107 -8 106 0 136 44 166 46 31 95 28 173 -12z m1058
-43 c11 -24 11 -24 -3 -6 -9 11 -16 24 -16 30 0 12 5 7 19 -24z m1711 -120 c0
-6 9 -6 24 0 19 7 30 5 48 -9 l23 -19 -45 -12 c-25 -6 -67 -18 -95 -25 -54
-15 -261 -79 -310 -96 -120 -41 -318 -93 -395 -103 l-45 -6 35 14 c20 7 55 17
78 21 23 4 42 11 42 16 0 5 10 9 22 9 11 0 50 14 85 30 34 17 72 30 82 30 11
0 23 5 26 11 4 6 13 8 21 5 9 -3 11 0 7 11 -5 12 -1 14 15 8 12 -3 22 -3 22 2
0 12 76 49 128 63 23 6 42 15 42 19 0 8 16 13 105 29 64 12 85 12 85 2z m148
-17 c-10 -2 -26 -2 -35 0 -10 3 -2 5 17 5 19 0 27 -2 18 -5z m-1978 -58 c0 -5
-5 -3 -10 5 -5 8 -10 20 -10 25 0 6 5 3 10 -5 5 -8 10 -19 10 -25z m28 -90 c0
-5 -6 4 -13 20 -8 17 -14 37 -14 45 0 8 7 -1 14 -20 7 -19 13 -39 13 -45z
m-755 10 c33 -7 120 -46 114 -52 -3 -2 -18 2 -34 11 -46 23 -150 34 -213 21
-70 -14 -96 -29 -115 -63 -15 -26 -16 -26 -9 -2 14 54 53 80 134 90 53 7 71 6
123 -5z m406 -35 c0 -10 -3 -8 -9 5 -12 27 -12 43 0 25 5 -8 9 -22 9 -30z
m-65 14 c3 -8 2 -12 -4 -9 -6 3 -10 10 -10 16 0 14 7 11 14 -7z m-189 -52 c-3
-3 -11 0 -18 7 -9 10 -8 11 6 5 10 -3 15 -9 12 -12z m622 -4 c-3 -8 -6 -5 -6
6 -1 11 2 17 5 13 3 -3 4 -12 1 -19z m-70 -50 c-3 -7 -5 -2 -5 12 0 14 2 19 5
13 2 -7 2 -19 0 -25z m-376 -31 c25 -49 12 -39 -21 17 -13 22 -18 36 -12 32 7
-4 22 -26 33 -49z m466 11 c-3 -8 -6 -5 -6 6 -1 11 2 17 5 13 3 -3 4 -12 1
-19z m670 16 c-3 -3 -12 -4 -19 -1 -8 3 -5 6 6 6 11 1 17 -2 13 -5z m181 -1
c-10 -2 -26 -2 -35 0 -10 3 -2 5 17 5 19 0 27 -2 18 -5z m-1931 -65 c-3 -7 -5
-2 -5 12 0 14 2 19 5 13 2 -7 2 -19 0 -25z m1090 10 c-3 -8 -6 -5 -6 6 -1 11
2 17 5 13 3 -3 4 -12 1 -19z m-437 -56 c0 -15 -2 -15 -10 -2 -13 20 -13 33 0
25 6 -3 10 -14 10 -23z m17 -64 c-3 -8 -6 -5 -6 6 -1 11 2 17 5 13 3 -3 4 -12
1 -19z m30 -120 c-3 -8 -6 -5 -6 6 -1 11 2 17 5 13 3 -3 4 -12 1 -19z m-60
-10 c-3 -8 -6 -5 -6 6 -1 11 2 17 5 13 3 -3 4 -12 1 -19z"/>
<path d="M3455 630 c-19 -8 -19 -9 3 -9 12 -1 22 4 22 9 0 6 -1 10 -2 9 -2 0
-12 -4 -23 -9z"/>
<path d="M3548 633 c6 -2 18 -2 25 0 6 3 1 5 -13 5 -14 0 -19 -2 -12 -5z"/>
<path d="M3638 633 c7 -3 16 -2 19 1 4 3 -2 6 -13 5 -11 0 -14 -3 -6 -6z"/>
<path d="M2608 3293 c6 -2 18 -2 25 0 6 3 1 5 -13 5 -14 0 -19 -2 -12 -5z"/>
<path d="M2120 3245 c-14 -8 -20 -14 -15 -14 6 0 21 6 35 14 14 8 21 14 15 14
-5 0 -21 -6 -35 -14z"/>
<path d="M1624 3066 c-10 -8 -17 -17 -14 -19 3 -3 14 1 24 9 11 7 17 16 15 19
-3 3 -14 -2 -25 -9z"/>
<path d="M1550 3010 c-14 -11 -20 -20 -15 -19 13 0 50 28 44 33 -2 3 -15 -4
-29 -14z"/>
<path d="M2226 2982 c-3 -6 0 -13 6 -15 7 -3 -22 -6 -64 -6 -54 -1 -91 -7
-125 -22 -26 -11 -69 -24 -94 -29 -25 -5 -77 -23 -115 -41 -38 -18 -72 -32
-76 -31 -3 1 -12 -5 -18 -13 -7 -8 -21 -15 -31 -15 -11 0 -19 -4 -19 -9 0 -5
-9 -12 -19 -16 -11 -3 -36 -17 -55 -30 -20 -13 -36 -22 -36 -20 0 3 -28 -13
-62 -35 -33 -22 -70 -40 -80 -40 -11 0 -17 -4 -14 -9 3 -5 -8 -14 -25 -21 -16
-7 -35 -20 -42 -30 -13 -18 -52 -37 -41 -19 3 6 -16 -6 -42 -26 -50 -38 -83
-79 -72 -90 3 -3 32 -1 64 4 33 6 125 21 206 35 80 14 184 34 230 45 247 59
414 65 513 16 75 -36 112 -69 139 -124 30 -60 37 -89 37 -165 l1 -62 66 -12
c37 -6 70 -8 74 -4 19 19 87 156 110 222 60 169 60 220 4 335 -51 105 -153
186 -235 187 -25 0 -38 4 -34 11 4 6 -4 8 -21 3 -28 -7 -106 11 -117 27 -4 5
-9 5 -13 -1z m19 -168 c17 -25 3 -34 -52 -34 -59 0 -93 15 -93 41 0 21 3 21
66 16 48 -3 69 -10 79 -23z"/>
<path d="M1439 2933 c-13 -17 -13 -17 6 -3 11 8 22 16 24 17 2 2 0 3 -6 3 -6
0 -17 -8 -24 -17z"/>
<path d="M1167 2923 c-8 -7 -42 -12 -104 -16 -22 -1 -37 -5 -31 -8 5 -4 -12
-10 -38 -14 -61 -9 -205 -73 -294 -130 -99 -63 -120 -78 -116 -82 4 -4 47 17
56 28 10 12 52 30 58 25 3 -3 0 -6 -6 -6 -6 0 -17 -6 -24 -12 -7 -7 -40 -33
-73 -57 -33 -25 -63 -49 -66 -54 -7 -10 21 -68 45 -92 9 -9 14 -20 12 -24 -3
-4 9 -13 26 -20 17 -8 50 -34 74 -58 39 -41 44 -44 80 -38 99 17 169 43 207
77 19 16 18 17 -27 15 -25 -1 -46 2 -46 7 0 4 -7 5 -16 2 -9 -4 -28 1 -41 9
-13 9 -29 15 -36 13 -17 -4 -103 48 -122 74 -8 13 -15 37 -15 54 0 35 43 100
84 127 15 10 24 22 21 27 -4 6 -2 10 4 10 5 0 38 13 73 30 61 27 156 55 164
47 2 -2 -22 -11 -54 -20 -31 -9 -88 -36 -127 -61 -38 -25 -73 -46 -79 -46 -5
0 -7 -3 -4 -6 4 -3 17 0 30 6 23 12 23 12 3 -7 -11 -10 -28 -22 -37 -26 -10
-3 -18 -13 -18 -21 0 -8 -4 -18 -10 -21 -6 -4 -7 1 -4 12 5 17 4 16 -10 -1
-11 -14 -13 -24 -5 -38 6 -11 8 -22 5 -26 -3 -3 -6 0 -6 6 0 7 -5 12 -10 12
-7 0 -7 -7 0 -20 6 -11 15 -18 21 -15 5 4 9 1 9 -5 0 -16 31 -45 67 -64 22
-11 209 -55 239 -56 1 0 11 9 23 19 18 16 20 24 12 38 -10 17 -10 17 -11 -2
-1 -13 -9 -3 -25 28 -13 27 -21 55 -18 63 3 9 -1 14 -11 14 -9 0 -19 8 -23 18
-3 9 -14 26 -23 37 -32 36 -33 61 -5 79 15 10 32 15 38 12 7 -2 5 -5 -4 -5 -9
-1 -24 -10 -33 -20 -17 -19 -15 -22 56 -98 40 -43 76 -80 79 -83 3 -3 8 -13
12 -22 10 -27 27 -22 27 8 0 14 5 34 10 44 10 19 -5 56 -46 115 -24 33 -17 70
21 111 40 43 42 51 18 57 -11 3 -5 5 12 6 31 2 82 51 52 51 -7 0 -17 -3 -20
-7z m-80 -59 c-3 -3 -12 -4 -19 -1 -8 3 -5 6 6 6 11 1 17 -2 13 -5z m-50 -90
c-3 -3 -12 -4 -19 -1 -8 3 -5 6 6 6 11 1 17 -2 13 -5z m-297 -18 c0 -2 -8 -10
-17 -17 -16 -13 -17 -12 -4 4 13 16 21 21 21 13z"/>
<path d="M1133 2650 c1 -22 22 -27 33 -8 4 7 3 8 -4 4 -7 -4 -12 -1 -12 8 0 9
-4 16 -9 16 -6 0 -9 -9 -8 -20z"/>
<path d="M1010 2590 c0 -5 5 -10 10 -10 6 0 10 5 10 10 0 6 -4 10 -10 10 -5 0
-10 -4 -10 -10z"/>
<path d="M1034 2565 c-8 -20 4 -35 22 -28 15 5 15 7 0 15 -9 5 -14 13 -11 19
4 5 4 9 0 9 -3 0 -8 -7 -11 -15z"/>
<path d="M1070 2521 c0 -5 5 -13 10 -16 6 -3 10 -2 10 4 0 5 -4 13 -10 16 -5
3 -10 2 -10 -4z"/>
<path d="M350 2485 c-19 -13 -43 -24 -53 -24 -25 -1 -11 -21 16 -22 20 -1 20
-2 2 -6 -49 -12 -28 -20 57 -22 114 -2 162 -14 210 -53 35 -27 40 -28 77 -18
l40 11 -22 22 c-12 12 -25 21 -29 20 -5 -2 -8 2 -8 7 0 6 -5 10 -11 10 -5 0
-7 -5 -3 -11 4 -7 -6 -5 -22 4 -36 19 -158 67 -173 67 -6 0 -16 9 -23 20 -16
24 -15 24 -58 -5z"/>
<path d="M556 2438 c3 -4 11 -5 19 -1 21 7 19 12 -4 10 -11 0 -18 -5 -15 -9z"/>
<path d="M98 2403 c17 -6 15 -33 -2 -33 -8 0 -17 6 -19 13 -3 7 -6 5 -6 -5 -1
-18 -12 -22 -40 -18 -8 1 -12 -4 -8 -14 4 -10 1 -13 -9 -9 -7 3 -14 0 -14 -6
0 -6 16 -9 39 -7 21 2 51 -3 67 -10 24 -10 25 -13 9 -14 -11 0 24 -16 77 -34
54 -18 101 -36 105 -39 3 -4 14 -7 23 -7 10 0 24 -8 31 -17 12 -15 12 -16 -6
-9 -71 30 -98 36 -110 26 -6 -5 -15 -7 -18 -3 -4 3 -7 1 -7 -5 0 -6 11 -14 25
-18 27 -7 33 -19 12 -27 -6 -3 -3 -6 8 -6 34 -2 115 -45 121 -66 4 -11 14 -25
23 -32 14 -10 13 -11 -4 -7 -11 3 -34 -2 -50 -11 l-30 -17 50 7 c28 3 68 11
90 17 34 9 37 12 20 18 -43 16 -28 138 23 192 14 15 22 31 19 35 -4 3 -51 10
-105 13 -96 7 -97 7 -24 8 40 1 93 -3 117 -9 32 -8 48 -8 65 1 20 10 20 13 7
28 -9 9 -29 25 -46 35 -30 17 -31 17 -24 0 4 -13 3 -15 -5 -8 -6 6 -32 9 -58
6 -31 -2 -42 -6 -33 -12 19 -12 -30 -11 -166 4 -85 10 -110 16 -109 27 1 9 -9
15 -25 16 -14 1 -20 -1 -13 -3z m138 -109 c-54 -12 -71 -13 -80 -3 -6 7 -6 10
-1 7 6 -3 28 -2 50 2 73 14 101 9 31 -6z"/>
<path d="M8 2273 c7 -3 16 -2 19 1 4 3 -2 6 -13 5 -11 0 -14 -3 -6 -6z"/>
<path d="M90 2260 c-11 -8 -7 -9 15 -4 37 8 45 14 19 14 -10 0 -26 -5 -34 -10z"/>
<path d="M2586 2253 c-6 -14 -5 -15 5 -6 7 7 10 15 7 18 -3 3 -9 -2 -12 -12z"/>
<path d="M150 2250 c-8 -5 -10 -10 -5 -10 6 0 17 5 25 10 8 5 11 10 5 10 -5 0
-17 -5 -25 -10z"/>
<path d="M2385 2082 c-64 -22 -95 -72 -95 -155 0 -106 44 -157 137 -157 60 0
89 19 114 74 21 47 24 99 8 145 -13 37 -22 39 -43 9 -9 -12 -48 -55 -87 -95
-40 -40 -68 -73 -63 -73 5 0 2 -4 -6 -9 -8 -6 -18 -7 -23 -4 -4 2 23 37 61 76
93 96 132 140 132 149 0 25 -95 53 -135 40z m12 -76 c-13 -13 -33 -36 -45 -51
-12 -16 -25 -25 -28 -22 -7 6 76 97 89 97 4 0 -3 -11 -16 -24z"/>
<path d="M1481 1874 c-43 -54 -10 -124 58 -124 53 0 75 27 68 80 -7 55 -22 70
-67 70 -30 0 -43 -6 -59 -26z"/>
<path d="M0 1761 c0 -72 1 -131 3 -131 7 0 113 32 120 37 4 2 -2 20 -13 39
-12 18 -18 39 -14 45 4 8 3 9 -4 5 -7 -4 -20 11 -34 41 -12 26 -30 59 -40 72
-18 23 -18 21 -18 -108z"/>
</g>
</svg>
